# Blender v2.82 (sub 7) OBJ File: ''
# www.blender.org
mtllib untitled.mtl
o Plane_Plane.001
v -1.762875 0.000000 1.007155
v 1.000000 0.000000 1.000000
v -1.643563 -0.000000 -0.796763
v 0.885701 -0.000000 -1.317319
v -1.000000 0.000000 0.000000
v 0.000000 0.000000 1.000000
v 1.000000 0.000000 0.000000
v 0.000000 0.000000 -1.000000
v 0.000000 0.000000 0.000000
vt 1.000000 0.500000
vt 0.500000 1.000000
vt 0.500000 0.500000
vt 0.000000 1.000000
vt 0.000000 0.500000
vt 0.500000 0.000000
vt 0.000000 0.000000
vt 1.000000 0.000000
vt 1.000000 1.000000
vn 0.0000 1.0000 0.0000
usemtl None
s off
f 7/1/1 8/2/1 9/3/1
f 9/3/1 3/4/1 5/5/1
f 6/6/1 5/5/1 1/7/1
f 2/8/1 9/3/1 6/6/1
f 7/1/1 4/9/1 8/2/1
f 9/3/1 8/2/1 3/4/1
f 6/6/1 9/3/1 5/5/1
f 2/8/1 7/1/1 9/3/1
